<svg version="1.1" xmlns="http://www.w3.org/2000/svg" viewBox="0 0 244.1669091674121 239.85600706803916" width="244.1669091674121" height="239.85600706803916">
  <!-- svg-source:excalidraw -->
  
  <defs>
    <style class="style-fonts">
      
    </style>
    
  </defs>
  <g transform="translate(87.11724866656641 12.394945610762989) rotate(0 34.96620591713963 107.53305792325659)" stroke="none"><path fill="#1e1e1e" d="M 0,5.25 Q 0,5.25 -4.52,5.25 -9.05,5.24 -16.33,8.23 -23.61,11.22 -27.98,14.72 -32.34,18.21 -36.84,22.99 -41.33,27.78 -44.43,31.79 -47.53,35.80 -50.96,41.47 -54.38,47.14 -56.63,51.67 -58.87,56.19 -61.44,62.56 -64.01,68.92 -65.63,73.88 -67.24,78.83 -68.57,85.27 -69.90,91.71 -70.45,98.52 -71.00,105.33 -70.56,112.39 -70.12,119.46 -69.40,124.62 -68.69,129.78 -67.19,135.47 -65.70,141.17 -64.27,145.32 -62.85,149.46 -60.29,154.40 -57.74,159.35 -54.18,164.29 -50.62,169.24 -46.29,174.17 -41.96,179.10 -36.75,183.49 -31.54,187.88 -25.57,191.89 -19.61,195.90 -15.07,198.55 -10.52,201.20 -4.87,203.44 0.76,205.67 5.35,207.19 9.95,208.71 15.60,209.70 21.25,210.69 27.73,210.97 34.22,211.25 39.06,210.98 43.90,210.70 48.24,210.19 52.58,209.67 60.40,207.33 68.21,204.99 75.38,201.74 82.55,198.49 87.48,195.78 92.41,193.06 96.20,190.59 100.00,188.12 106.17,182.46 112.34,176.81 116.22,172.77 120.09,168.73 123.79,163.76 127.49,158.79 130.48,153.54 133.48,148.29 135.74,141.83 137.99,135.36 139.07,129.65 140.14,123.93 140.32,118.30 140.50,112.67 139.39,105.21 138.27,97.74 136.47,91.39 134.68,85.05 132.34,79.48 130.00,73.92 127.16,68.79 124.32,63.66 121.01,59.00 117.70,54.35 114.07,50.29 110.44,46.23 105.41,41.25 100.39,36.28 95.98,32.73 91.57,29.18 87.41,26.18 83.25,23.19 78.25,20.04 73.26,16.89 69.32,14.78 65.38,12.68 60.88,11.23 56.38,9.78 49.88,8.35 43.38,6.92 37.65,5.93 31.93,4.94 27.05,4.12 22.16,3.30 16.07,3.08 9.98,2.85 9.15,2.70 8.31,2.56 7.57,2.15 6.82,1.74 6.24,1.12 5.67,0.49 5.32,-0.28 4.97,-1.05 4.89,-1.90 4.81,-2.74 5.01,-3.57 5.20,-4.40 5.65,-5.12 6.10,-5.84 6.75,-6.39 7.41,-6.93 8.20,-7.23 8.99,-7.53 9.84,-7.57 10.69,-7.60 11.51,-7.37 12.32,-7.13 13.02,-6.64 13.72,-6.16 14.22,-5.47 14.73,-4.79 14.99,-3.98 15.25,-3.17 15.24,-2.32 15.23,-1.47 14.94,-0.67 14.66,0.12 14.14,0.79 13.62,1.46 12.91,1.93 12.20,2.40 11.37,2.61 10.55,2.83 9.70,2.77 8.86,2.71 8.07,2.39 7.29,2.06 6.65,1.51 6.00,0.95 5.58,0.21 5.15,-0.51 4.98,-1.34 4.80,-2.18 4.91,-3.02 5.01,-3.86 5.38,-4.63 5.75,-5.40 6.34,-6.01 6.93,-6.61 7.69,-7.00 8.44,-7.39 9.28,-7.52 10.12,-7.64 10.12,-7.64 10.12,-7.64 13.68,-7.59 17.23,-7.55 22.81,-6.96 28.38,-6.37 33.84,-5.39 39.30,-4.42 45.26,-3.33 51.23,-2.24 55.45,-1.21 59.68,-0.19 65.00,1.61 70.33,3.41 74.60,5.71 78.87,8.01 84.13,11.33 89.38,14.66 93.78,17.83 98.18,21.01 102.91,24.84 107.63,28.67 112.96,33.96 118.29,39.25 122.28,43.76 126.28,48.28 129.90,53.43 133.52,58.59 136.61,64.23 139.70,69.87 142.25,76.04 144.80,82.21 146.73,89.22 148.66,96.23 149.83,104.63 151.00,113.04 150.73,119.47 150.46,125.91 149.18,132.39 147.89,138.87 145.25,146.18 142.60,153.50 139.25,159.29 135.90,165.08 131.79,170.54 127.67,176.00 123.54,180.29 119.41,184.58 112.57,190.75 105.73,196.92 101.60,199.59 97.47,202.27 92.16,205.17 86.86,208.07 79.03,211.57 71.19,215.07 62.51,217.58 53.83,220.10 49.15,220.65 44.47,221.19 39.10,221.47 33.73,221.75 26.57,221.39 19.40,221.03 13.03,219.86 6.66,218.68 1.75,217.05 -3.14,215.42 -9.47,212.85 -15.81,210.28 -20.65,207.44 -25.50,204.61 -31.91,200.25 -38.33,195.89 -44.09,190.96 -49.86,186.03 -54.51,180.69 -59.17,175.35 -63.13,169.74 -67.09,164.14 -69.94,158.51 -72.78,152.88 -74.33,148.34 -75.87,143.81 -77.48,137.51 -79.09,131.21 -79.85,125.64 -80.61,120.08 -81.04,112.27 -81.47,104.47 -80.83,97.02 -80.18,89.58 -78.71,82.57 -77.23,75.57 -75.49,70.27 -73.75,64.98 -71.01,58.24 -68.28,51.51 -65.82,46.60 -63.36,41.69 -59.60,35.52 -55.84,29.36 -52.40,24.95 -48.96,20.55 -43.91,15.26 -38.86,9.97 -33.73,5.97 -28.59,1.97 -23.59,-0.59 -18.59,-3.17 -13.85,-4.21 -9.11,-5.24 -4.55,-5.25 0,-5.25 0.62,-5.17 1.25,-5.10 1.84,-4.87 2.44,-4.65 2.96,-4.29 3.48,-3.93 3.90,-3.45 4.32,-2.98 4.61,-2.42 4.91,-1.86 5.06,-1.24 5.21,-0.63 5.21,0.00 5.21,0.63 5.06,1.24 4.91,1.86 4.61,2.42 4.32,2.98 3.90,3.45 3.48,3.93 2.96,4.29 2.44,4.65 1.84,4.87 1.25,5.10 0.62,5.17 -0.00,5.25 -0.00,5.25 L 0,5.25 Z"></path></g><g transform="translate(86.63825954441472 170.94034504327055) rotate(0 52.92829799786068 -12.932706298119967)" stroke="none"><path fill="#1e1e1e" d="M -3.01,-4.30 Q -3.01,-4.30 2.50,-8.16 8.02,-12.02 12.36,-13.93 16.70,-15.83 23.27,-16.69 29.83,-17.55 37.35,-16.06 44.87,-14.57 50.69,-13.07 56.50,-11.58 61.65,-10.75 66.79,-9.92 73.42,-10.82 80.05,-11.73 85.02,-14.33 89.98,-16.94 93.38,-19.51 96.78,-22.08 98.77,-24.62 100.76,-27.17 101.10,-27.94 101.45,-28.72 102.02,-29.35 102.59,-29.98 103.33,-30.39 104.08,-30.80 104.91,-30.96 105.75,-31.11 106.59,-30.99 107.43,-30.87 108.19,-30.49 108.95,-30.10 109.54,-29.50 110.14,-28.89 110.51,-28.13 110.89,-27.36 110.99,-26.52 111.10,-25.68 110.94,-24.84 110.77,-24.01 110.34,-23.27 109.92,-22.54 109.28,-21.98 108.65,-21.41 107.86,-21.08 107.08,-20.75 106.23,-20.69 105.39,-20.63 104.56,-20.84 103.74,-21.05 103.03,-21.51 102.31,-21.98 101.79,-22.64 101.26,-23.31 100.97,-24.11 100.68,-24.91 100.67,-25.76 100.65,-26.61 100.91,-27.42 101.16,-28.23 101.66,-28.92 102.17,-29.60 102.86,-30.09 103.55,-30.58 104.37,-30.83 105.18,-31.07 106.03,-31.04 106.88,-31.01 107.68,-30.71 108.47,-30.41 109.13,-29.88 109.79,-29.34 110.24,-28.62 110.69,-27.90 110.89,-27.07 111.09,-26.25 111.02,-25.40 110.94,-24.55 110.94,-24.55 110.94,-24.55 107.38,-19.42 103.81,-14.28 99.58,-11.09 95.34,-7.90 88.90,-4.70 82.45,-1.50 76.07,-0.37 69.69,0.76 65.21,0.34 60.74,-0.08 54.13,-1.57 47.53,-3.06 41.58,-4.58 35.62,-6.10 30.90,-6.51 26.18,-6.92 20.09,-5.16 14.00,-3.39 8.51,0.45 3.01,4.30 2.45,4.60 1.89,4.89 1.28,5.05 0.66,5.21 0.03,5.21 -0.59,5.21 -1.21,5.07 -1.83,4.92 -2.39,4.63 -2.95,4.34 -3.43,3.92 -3.90,3.50 -4.27,2.99 -4.63,2.47 -4.86,1.88 -5.09,1.29 -5.17,0.66 -5.25,0.03 -5.18,-0.59 -5.10,-1.22 -4.88,-1.81 -4.66,-2.41 -4.31,-2.93 -3.95,-3.45 -3.48,-3.88 -3.01,-4.30 -3.01,-4.30 L -3.01,-4.30 Z"></path></g><g transform="translate(87.11724866656641 77.53746622351537) rotate(0 -0.2394945610758441 7.903320515517805)" stroke="none"><path fill="#1e1e1e" d="M 2.18,4.77 Q 2.18,4.77 -1.08,6.27 -4.36,7.77 0.52,8.10 5.42,8.44 4.24,6.35 3.06,4.26 2.30,4.64 1.54,5.02 0.70,5.13 -0.14,5.25 -0.97,5.09 -1.81,4.93 -2.55,4.51 -3.29,4.09 -3.85,3.46 -4.42,2.82 -4.76,2.04 -5.09,1.26 -5.16,0.42 -5.23,-0.42 -5.03,-1.25 -4.82,-2.07 -4.36,-2.79 -3.91,-3.50 -3.24,-4.04 -2.58,-4.57 -1.78,-4.86 -0.99,-5.15 -0.14,-5.18 0.70,-5.20 1.52,-4.95 2.33,-4.70 3.02,-4.21 3.71,-3.71 4.21,-3.02 4.70,-2.33 4.95,-1.52 5.20,-0.70 5.18,0.14 5.15,0.99 4.86,1.78 4.57,2.58 4.04,3.24 3.50,3.91 2.79,4.36 2.07,4.82 1.25,5.03 0.42,5.23 -0.42,5.16 -1.26,5.09 -2.04,4.76 -2.82,4.42 -3.46,3.85 -4.09,3.29 -4.51,2.55 -4.93,1.81 -5.09,0.97 -5.25,0.14 -5.13,-0.70 -5.02,-1.54 -4.64,-2.30 -4.26,-3.06 -3.66,-3.66 -3.06,-4.26 -3.06,-4.26 -3.06,-4.26 1.36,-6.38 5.79,-8.51 10.36,-6.19 14.93,-3.88 15.79,1.92 16.66,7.73 14.44,12.05 12.23,16.37 8.22,19.02 4.21,21.68 -1.96,22.60 -8.14,23.52 -12.10,20.55 -16.06,17.58 -16.10,11.74 -16.14,5.90 -12.49,2.09 -8.85,-1.71 -5.52,-3.24 -2.18,-4.77 -1.58,-4.96 -0.98,-5.16 -0.35,-5.20 0.28,-5.24 0.90,-5.13 1.52,-5.02 2.10,-4.77 2.68,-4.51 3.18,-4.12 3.68,-3.73 4.08,-3.24 4.47,-2.74 4.74,-2.17 5.00,-1.59 5.12,-0.97 5.24,-0.35 5.20,0.27 5.17,0.91 4.98,1.51 4.80,2.12 4.48,2.66 4.15,3.21 3.71,3.66 3.26,4.11 2.72,4.44 2.18,4.77 2.18,4.77 L 2.18,4.77 Z"></path></g><g transform="translate(153.21774752362398 74.66353149059978) rotate(0 5.747869465830718 10.777255248433278)" stroke="none"><path fill="#1e1e1e" d="M 4.94,1.78 Q 4.94,1.78 3.16,6.47 1.38,11.16 5.18,13.89 8.98,16.62 8.45,12.06 7.93,7.49 4.73,5.39 1.53,3.28 0.84,2.79 0.14,2.30 -0.35,1.62 -0.85,0.93 -1.11,0.12 -1.36,-0.68 -1.35,-1.53 -1.33,-2.38 -1.04,-3.18 -0.76,-3.98 -0.23,-4.65 0.29,-5.31 1.00,-5.78 1.71,-6.24 2.53,-6.45 3.36,-6.66 4.20,-6.60 5.05,-6.54 5.84,-6.21 6.62,-5.88 7.26,-5.32 7.89,-4.76 8.32,-4.02 8.74,-3.28 8.91,-2.45 9.08,-1.62 8.97,-0.78 8.86,0.06 8.49,0.82 8.12,1.59 7.52,2.19 6.93,2.80 6.17,3.18 5.41,3.57 4.57,3.69 3.73,3.81 2.89,3.66 2.06,3.50 1.31,3.09 0.57,2.68 0.00,2.05 -0.57,1.42 -0.91,0.65 -1.25,-0.12 -1.33,-0.97 -1.40,-1.81 -1.20,-2.64 -1.01,-3.47 -0.55,-4.19 -0.10,-4.91 0.55,-5.45 1.20,-5.98 2.00,-6.28 2.79,-6.58 3.64,-6.61 4.49,-6.64 5.31,-6.40 6.12,-6.16 6.12,-6.16 6.12,-6.16 10.53,-3.24 14.95,-0.32 18.50,3.66 22.05,7.64 21.99,14.15 21.94,20.66 18.24,23.14 14.54,25.61 9.32,26.13 4.10,26.65 -1.31,22.55 -6.73,18.45 -7.64,13.56 -8.54,8.66 -6.74,3.44 -4.94,-1.78 -4.65,-2.34 -4.37,-2.91 -3.95,-3.39 -3.54,-3.87 -3.03,-4.24 -2.51,-4.61 -1.92,-4.84 -1.33,-5.07 -0.71,-5.16 -0.08,-5.25 0.54,-5.18 1.17,-5.11 1.77,-4.90 2.36,-4.68 2.89,-4.33 3.42,-3.98 3.84,-3.51 4.27,-3.05 4.57,-2.49 4.88,-1.94 5.04,-1.32 5.20,-0.71 5.21,-0.08 5.22,0.55 5.08,1.16 4.94,1.78 4.94,1.78 L 4.94,1.78 Z"></path></g></svg>